<svg xmlns="http://www.w3.org/2000/svg" width="960" height="420" viewBox="0 0 960 420" role="img" aria-labelledby="title desc">
  <title id="title">Adejire Adegite — Robotics, Embedded Systems, Intelligent Systems</title>
  <desc id="desc">Conceptual engineering illustration. Geometry is illustrative and does not represent measured results.</desc>
  <rect x="0.5" y="0.5" width="959" height="419" rx="16" fill="#F6F8FA" stroke="#CCD3DB" />
  <text x="40" y="65" font-family="Arial, Helvetica, sans-serif" font-size="57" font-weight="700" fill="#17212B" letter-spacing="1">ADEJIRE ADEGITE</text>
  <text x="42" y="110" font-family="Arial, Helvetica, sans-serif" font-size="27" font-weight="400" fill="#17212B">Electrical &amp; Electronics Engineering</text>
  <text x="42" y="149" font-family="Arial, Helvetica, sans-serif" font-size="25" font-weight="400" fill="#596674">Robotics · Embedded Systems · Intelligent Systems</text>
  <path d="M42,178 H918" fill="none" stroke="#CCD3DB" stroke-width="2" stroke-linecap="round" stroke-linejoin="round" />
  <circle cx="70" cy="208" r="1.2" fill="#CCD3DB" />
  <circle cx="70" cy="253" r="1.2" fill="#CCD3DB" />
  <circle cx="70" cy="298" r="1.2" fill="#CCD3DB" />
  <circle cx="70" cy="343" r="1.2" fill="#CCD3DB" />
  <circle cx="70" cy="388" r="1.2" fill="#CCD3DB" />
  <circle cx="120" cy="208" r="1.2" fill="#CCD3DB" />
  <circle cx="120" cy="253" r="1.2" fill="#CCD3DB" />
  <circle cx="120" cy="298" r="1.2" fill="#CCD3DB" />
  <circle cx="120" cy="343" r="1.2" fill="#CCD3DB" />
  <circle cx="120" cy="388" r="1.2" fill="#CCD3DB" />
  <circle cx="170" cy="208" r="1.2" fill="#CCD3DB" />
  <circle cx="170" cy="253" r="1.2" fill="#CCD3DB" />
  <circle cx="170" cy="298" r="1.2" fill="#CCD3DB" />
  <circle cx="170" cy="343" r="1.2" fill="#CCD3DB" />
  <circle cx="170" cy="388" r="1.2" fill="#CCD3DB" />
  <circle cx="220" cy="208" r="1.2" fill="#CCD3DB" />
  <circle cx="220" cy="253" r="1.2" fill="#CCD3DB" />
  <circle cx="220" cy="298" r="1.2" fill="#CCD3DB" />
  <circle cx="220" cy="343" r="1.2" fill="#CCD3DB" />
  <circle cx="220" cy="388" r="1.2" fill="#CCD3DB" />
  <circle cx="270" cy="208" r="1.2" fill="#CCD3DB" />
  <circle cx="270" cy="253" r="1.2" fill="#CCD3DB" />
  <circle cx="270" cy="298" r="1.2" fill="#CCD3DB" />
  <circle cx="270" cy="343" r="1.2" fill="#CCD3DB" />
  <circle cx="270" cy="388" r="1.2" fill="#CCD3DB" />
  <circle cx="320" cy="208" r="1.2" fill="#CCD3DB" />
  <circle cx="320" cy="253" r="1.2" fill="#CCD3DB" />
  <circle cx="320" cy="298" r="1.2" fill="#CCD3DB" />
  <circle cx="320" cy="343" r="1.2" fill="#CCD3DB" />
  <circle cx="320" cy="388" r="1.2" fill="#CCD3DB" />
  <circle cx="370" cy="208" r="1.2" fill="#CCD3DB" />
  <circle cx="370" cy="253" r="1.2" fill="#CCD3DB" />
  <circle cx="370" cy="298" r="1.2" fill="#CCD3DB" />
  <circle cx="370" cy="343" r="1.2" fill="#CCD3DB" />
  <circle cx="370" cy="388" r="1.2" fill="#CCD3DB" />
  <circle cx="420" cy="208" r="1.2" fill="#CCD3DB" />
  <circle cx="420" cy="253" r="1.2" fill="#CCD3DB" />
  <circle cx="420" cy="298" r="1.2" fill="#CCD3DB" />
  <circle cx="420" cy="343" r="1.2" fill="#CCD3DB" />
  <circle cx="420" cy="388" r="1.2" fill="#CCD3DB" />
  <circle cx="470" cy="208" r="1.2" fill="#CCD3DB" />
  <circle cx="470" cy="253" r="1.2" fill="#CCD3DB" />
  <circle cx="470" cy="298" r="1.2" fill="#CCD3DB" />
  <circle cx="470" cy="343" r="1.2" fill="#CCD3DB" />
  <circle cx="470" cy="388" r="1.2" fill="#CCD3DB" />
  <circle cx="520" cy="208" r="1.2" fill="#CCD3DB" />
  <circle cx="520" cy="253" r="1.2" fill="#CCD3DB" />
  <circle cx="520" cy="298" r="1.2" fill="#CCD3DB" />
  <circle cx="520" cy="343" r="1.2" fill="#CCD3DB" />
  <circle cx="520" cy="388" r="1.2" fill="#CCD3DB" />
  <circle cx="570" cy="208" r="1.2" fill="#CCD3DB" />
  <circle cx="570" cy="253" r="1.2" fill="#CCD3DB" />
  <circle cx="570" cy="298" r="1.2" fill="#CCD3DB" />
  <circle cx="570" cy="343" r="1.2" fill="#CCD3DB" />
  <circle cx="570" cy="388" r="1.2" fill="#CCD3DB" />
  <circle cx="620" cy="208" r="1.2" fill="#CCD3DB" />
  <circle cx="620" cy="253" r="1.2" fill="#CCD3DB" />
  <circle cx="620" cy="298" r="1.2" fill="#CCD3DB" />
  <circle cx="620" cy="343" r="1.2" fill="#CCD3DB" />
  <circle cx="620" cy="388" r="1.2" fill="#CCD3DB" />
  <circle cx="670" cy="208" r="1.2" fill="#CCD3DB" />
  <circle cx="670" cy="253" r="1.2" fill="#CCD3DB" />
  <circle cx="670" cy="298" r="1.2" fill="#CCD3DB" />
  <circle cx="670" cy="343" r="1.2" fill="#CCD3DB" />
  <circle cx="670" cy="388" r="1.2" fill="#CCD3DB" />
  <circle cx="720" cy="208" r="1.2" fill="#CCD3DB" />
  <circle cx="720" cy="253" r="1.2" fill="#CCD3DB" />
  <circle cx="720" cy="298" r="1.2" fill="#CCD3DB" />
  <circle cx="720" cy="343" r="1.2" fill="#CCD3DB" />
  <circle cx="720" cy="388" r="1.2" fill="#CCD3DB" />
  <circle cx="770" cy="208" r="1.2" fill="#CCD3DB" />
  <circle cx="770" cy="253" r="1.2" fill="#CCD3DB" />
  <circle cx="770" cy="298" r="1.2" fill="#CCD3DB" />
  <circle cx="770" cy="343" r="1.2" fill="#CCD3DB" />
  <circle cx="770" cy="388" r="1.2" fill="#CCD3DB" />
  <circle cx="820" cy="208" r="1.2" fill="#CCD3DB" />
  <circle cx="820" cy="253" r="1.2" fill="#CCD3DB" />
  <circle cx="820" cy="298" r="1.2" fill="#CCD3DB" />
  <circle cx="820" cy="343" r="1.2" fill="#CCD3DB" />
  <circle cx="820" cy="388" r="1.2" fill="#CCD3DB" />
  <circle cx="870" cy="208" r="1.2" fill="#CCD3DB" />
  <circle cx="870" cy="253" r="1.2" fill="#CCD3DB" />
  <circle cx="870" cy="298" r="1.2" fill="#CCD3DB" />
  <circle cx="870" cy="343" r="1.2" fill="#CCD3DB" />
  <circle cx="870" cy="388" r="1.2" fill="#CCD3DB" />
  <path d="M100,349 C195,349 183,246 291,246 S445,345 553,305 S713,227 846,243" fill="none" stroke="#0F766E" stroke-width="2.5" stroke-linecap="round" stroke-linejoin="round" stroke-dasharray="7 7" />
  <path d="M462,244 Q525,201 588,244 M446,224 Q525,165 604,224" fill="none" stroke="#0F766E" stroke-width="1.5" stroke-linecap="round" stroke-linejoin="round" />
  <g transform="translate(525 282)">
    <rect x="-25" y="-32" width="50" height="64" rx="8" fill="#FFFFFF" stroke="#CCD3DB" />
    <rect x="-32" y="-26" width="8" height="19" rx="2" fill="#596674" stroke="#CCD3DB" />
    <rect x="-32" y="8" width="8" height="19" rx="2" fill="#596674" stroke="#CCD3DB" />
    <rect x="24" y="-26" width="8" height="19" rx="2" fill="#596674" stroke="#CCD3DB" />
    <rect x="24" y="8" width="8" height="19" rx="2" fill="#596674" stroke="#CCD3DB" />
    <path d="M-12,-15 H12 V15 H-12 Z" fill="none" stroke="#596674" stroke-width="2" stroke-linecap="round" stroke-linejoin="round" />
    <circle cx="0" cy="-22" r="4" fill="#0F766E" />
    <path d="M-8,-40 L0,-49 L8,-40" fill="none" stroke="#0F766E" stroke-width="2" stroke-linecap="round" stroke-linejoin="round" />
  </g>
  <path d="M552,276 L770,328" fill="none" stroke="#596674" stroke-width="1.5" stroke-linecap="round" stroke-linejoin="round" stroke-dasharray="3 7" />
  <rect x="769" y="310" width="43" height="33" rx="10" fill="#FFFFFF" stroke="#CCD3DB" />
  <path d="M790,343 V355 M776,356 H805" fill="none" stroke="#596674" stroke-width="2" stroke-linecap="round" stroke-linejoin="round" />
  <circle cx="100" cy="349" r="4" fill="#0F766E" />
  <circle cx="846" cy="243" r="4" fill="#0F766E" />
  <text x="65" y="235" font-family="Arial, Helvetica, sans-serif" font-size="14" font-weight="400" fill="#596674" letter-spacing="2">PLANNED MOTION</text>
  <text x="711" y="383" font-family="Arial, Helvetica, sans-serif" font-size="14" font-weight="400" fill="#596674" letter-spacing="1.5">SENSING / CONTROL</text>
  <path d="M62,386 V343 M62,386 H105" fill="none" stroke="#596674" stroke-width="1.5" stroke-linecap="round" stroke-linejoin="round" />
  <text x="49" y="337" font-family="Arial, Helvetica, sans-serif" font-size="12" font-weight="400" fill="#596674">y</text>
  <text x="111" y="390" font-family="Arial, Helvetica, sans-serif" font-size="12" font-weight="400" fill="#596674">x</text>
</svg>
